<svg width="25" height="25" viewBox="0 0 25 25" fill="none" xmlns="http://www.w3.org/2000/svg">
<rect width="24" height="24" transform="translate(0.5 0.307617)" fill="white"/>
<path d="M19.124 4.05762L13.41 8.04062C13.3179 8.10405 13.2425 8.18885 13.1902 8.28776C13.138 8.38667 13.1105 8.49676 13.11 8.60862V12.9086L11.725 13.6686V8.78162C11.725 8.59782 11.652 8.42156 11.522 8.29159C11.3921 8.16163 11.2158 8.08862 11.032 8.08862H4.8V9.47462H10.341V20.5576H11.727V15.2516L20.2 10.5996L19.533 9.38762L14.5 12.1536V8.96762L19.917 5.19062L19.124 4.05762ZM15.19 13.6306C14.779 13.6306 14.3772 13.7525 14.0355 13.9808C13.6938 14.2092 13.4275 14.5337 13.2702 14.9134C13.1129 15.2931 13.0717 15.7109 13.1519 16.114C13.2321 16.5171 13.43 16.8874 13.7206 17.178C14.0112 17.4686 14.3815 17.6665 14.7846 17.7467C15.1877 17.8269 15.6055 17.7857 15.9852 17.6284C16.3649 17.4712 16.6895 17.2048 16.9178 16.8631C17.1461 16.5214 17.268 16.1196 17.268 15.7086C17.2651 15.1584 17.0452 14.6315 16.6562 14.2424C16.2671 13.8534 15.7402 13.6335 15.19 13.6306ZM15.19 15.0156C15.3271 15.0156 15.461 15.0563 15.575 15.1324C15.689 15.2086 15.7778 15.3168 15.8302 15.4434C15.8827 15.57 15.8964 15.7094 15.8697 15.8438C15.8429 15.9782 15.7769 16.1017 15.68 16.1986C15.5831 16.2956 15.4596 16.3616 15.3252 16.3883C15.1908 16.415 15.0514 16.4013 14.9248 16.3489C14.7982 16.2964 14.6899 16.2076 14.6138 16.0936C14.5376 15.9797 14.497 15.8457 14.497 15.7086C14.4955 15.6172 14.5124 15.5264 14.5467 15.4417C14.581 15.3569 14.632 15.2799 14.6967 15.2153C14.7613 15.1506 14.8383 15.0996 14.9231 15.0653C15.0078 15.031 15.0986 15.0141 15.19 15.0156Z" fill="black"/>
</svg>
