<svg width="25" height="25" viewBox="0 0 25 25" fill="none" xmlns="http://www.w3.org/2000/svg">
<rect width="24" height="24" transform="translate(0.5 0.307617)" fill="white"/>
<path d="M12.49 4.30668C12.4462 4.3077 12.4026 4.3134 12.36 4.32368C10.2896 4.36197 8.31489 5.20215 6.8516 6.66731C5.38831 8.13246 4.55065 10.1083 4.515 12.1787C4.49515 12.2673 4.49515 12.3591 4.515 12.4477C4.55303 14.5182 5.3931 16.4932 6.85828 17.9567C8.32346 19.4202 10.2994 20.258 12.37 20.2937C12.4586 20.3135 12.5504 20.3135 12.639 20.2937C14.7095 20.2556 16.6845 19.4156 18.148 17.9504C19.6115 16.4852 20.4493 14.5093 20.485 12.4387C20.5049 12.3501 20.5049 12.2583 20.485 12.1697C20.4471 10.101 19.6085 8.12762 18.1457 6.66441C16.6828 5.2012 14.7097 4.36216 12.641 4.32368C12.5916 4.3118 12.5408 4.30609 12.49 4.30668ZM11.885 5.57668V11.6937H10.6C10.5002 10.8157 10.2068 9.9708 9.74094 9.21994C9.27507 8.46909 8.64835 7.83099 7.906 7.35168C8.99875 6.33522 10.3986 5.71013 11.885 5.57668ZM13.115 5.57668C14.5844 5.70786 15.9699 6.31855 17.058 7.31468C16.3153 7.7996 15.6899 8.44399 15.2276 9.20097C14.7652 9.95794 14.4773 10.8085 14.385 11.6907H13.115V5.57668ZM17.896 8.23868C18.656 9.24286 19.1186 10.4404 19.231 11.6947H15.615C15.709 10.9836 15.9631 10.3031 16.3582 9.70449C16.7533 9.10585 17.2791 8.60467 17.896 8.23868ZM7.075 8.27668C7.69069 8.63658 8.21725 9.13074 8.61547 9.72236C9.01369 10.314 9.27331 10.9878 9.375 11.6937H5.775C5.88427 10.4564 6.33426 9.27368 7.075 8.27668ZM5.768 12.9237H9.378C9.29321 13.6381 9.04669 14.3239 8.65716 14.9288C8.26764 15.5337 7.74535 16.0419 7.13 16.4147C6.35417 15.4037 5.8818 14.193 5.768 12.9237ZM10.607 12.9237H11.885V19.0407C10.4292 18.9095 9.0559 18.3074 7.973 17.3257C8.71167 16.834 9.33133 16.1837 9.78682 15.4221C10.2423 14.6606 10.5232 13.8071 10.607 12.9237ZM13.114 12.9237H14.384C14.4763 13.8059 14.7642 14.6564 15.2266 15.4134C15.6889 16.1704 16.3143 16.8148 17.057 17.2997C15.9693 18.2969 14.5837 18.9087 13.114 19.0407V12.9237ZM15.614 12.9237H19.231C19.1186 14.178 18.656 15.3755 17.896 16.3797C17.2791 16.0138 16.7533 15.5126 16.3581 14.9139C15.963 14.3153 15.7089 13.6348 15.615 12.9237H15.614Z" fill="black"/>
</svg>
