<svg width="25" height="25" viewBox="0 0 25 25" fill="none" xmlns="http://www.w3.org/2000/svg">
<rect width="24" height="24" transform="translate(0.5 0.307617)" fill="white"/>
<path d="M13.6299 4.30762C11.5089 4.30762 10.1019 4.54062 9.15594 5.29862C8.70172 5.74129 8.35578 6.2828 8.14505 6.88101C7.93431 7.47922 7.86446 8.118 7.94094 8.74762C7.94094 8.80262 7.94894 8.84762 7.94994 8.90562C7.25695 8.92302 6.59888 9.21342 6.11894 9.71362C5.81887 10.147 5.64566 10.6555 5.61881 11.182C5.59196 11.7084 5.71252 12.2319 5.96694 12.6936C6.32309 13.7237 6.86881 14.6782 7.57594 15.5076C7.99715 16.0243 8.50464 16.4641 9.07594 16.8076V18.5976C9.07934 19.0501 9.26059 19.4831 9.58054 19.803C9.9005 20.123 10.3335 20.3042 10.7859 20.3076H16.5009C16.9548 20.3053 17.3894 20.1239 17.7103 19.803C18.0312 19.4821 18.2126 19.0475 18.2149 18.5936V16.3376C18.7682 15.368 19.087 14.2824 19.1459 13.1676C19.3036 11.6998 19.3737 10.2238 19.3559 8.74762C19.4314 8.11617 19.3588 7.47584 19.1442 6.87724C18.9295 6.27865 18.5785 5.7382 18.1189 5.29862C17.1669 4.54262 15.7519 4.30762 13.6299 4.30762ZM13.6299 5.45062C15.6579 5.45062 16.8219 5.72762 17.4089 6.19362C17.9959 6.65962 18.2089 7.39362 18.2089 8.74762C18.2262 10.177 18.1594 11.6061 18.0089 13.0276C17.9374 13.9774 17.6647 14.9012 17.2089 15.7376H9.56294C9.14032 15.4728 8.76174 15.1435 8.44094 14.7616C7.82544 14.038 7.35062 13.2057 7.04094 12.3076V12.2916L7.03394 12.2786C6.60594 11.2106 6.74494 10.7386 6.98494 10.4636C7.28293 10.1997 7.66496 10.0501 8.06294 10.0416C8.27661 11.1028 8.63319 12.1302 9.12294 13.0956C9.14805 13.1699 9.18816 13.2381 9.24076 13.2962C9.29336 13.3543 9.35734 13.401 9.42873 13.4333C9.50012 13.4657 9.57739 13.483 9.65576 13.4842C9.73412 13.4855 9.8119 13.4706 9.88427 13.4405C9.95664 13.4104 10.0221 13.3658 10.0765 13.3094C10.1309 13.253 10.1731 13.186 10.2006 13.1126C10.228 13.0392 10.2401 12.9609 10.236 12.8827C10.2319 12.8044 10.2118 12.7278 10.1769 12.6576C9.52272 11.4531 9.14813 10.1167 9.08094 8.74762C9.08094 7.38862 9.29194 6.65562 9.87094 6.19162C10.4499 5.72762 11.6029 5.45062 13.6299 5.45062ZM10.2149 16.8806H17.0729V18.5946C17.0739 18.6699 17.0597 18.7445 17.0314 18.8142C17.003 18.8839 16.961 18.9473 16.9078 19.0005C16.8546 19.0537 16.7913 19.0957 16.7216 19.1241C16.6519 19.1524 16.5772 19.1666 16.5019 19.1656H10.7859C10.7107 19.1666 10.636 19.1524 10.5663 19.1241C10.4966 19.0957 10.4333 19.0537 10.3801 19.0005C10.3269 18.9473 10.2849 18.8839 10.2565 18.8142C10.2281 18.7445 10.214 18.6699 10.2149 18.5946V16.8806Z" fill="black"/>
</svg>
