<svg width="24" height="24" viewBox="0 0 24 24" fill="none" xmlns="http://www.w3.org/2000/svg">
<path d="M2.97205 5.94312V13.3721" stroke="black" stroke-width="1.4" stroke-linecap="round" stroke-linejoin="round"/>
<path d="M5.03406 20.0589C5.7775 18.9189 6.79359 17.9823 7.9903 17.334C9.18701 16.6857 10.5265 16.3462 11.8876 16.3462C13.2486 16.3462 14.5881 16.6857 15.7848 17.334C16.9815 17.9823 17.9976 18.9189 18.7411 20.0589" stroke="black" stroke-width="1.4" stroke-linecap="round" stroke-linejoin="round"/>
<path d="M20.802 5.94392L11.887 8.91492L2.97205 5.94392L11.887 2.97192L20.802 5.94392Z" stroke="black" stroke-width="1.4" stroke-linecap="round" stroke-linejoin="round"/>
<path d="M15.722 7.63403C16.4033 8.37822 16.8534 9.30453 17.0174 10.3001C17.1814 11.2956 17.0522 12.3173 16.6457 13.2407C16.2391 14.1641 15.5727 14.9493 14.7276 15.5005C13.8826 16.0518 12.8955 16.3453 11.8865 16.3453C10.8776 16.3453 9.89044 16.0518 9.04541 15.5005C8.20038 14.9493 7.53397 14.1641 7.1274 13.2407C6.72084 12.3173 6.59168 11.2956 6.75568 10.3001C6.91968 9.30453 7.36975 8.37822 8.05103 7.63403" stroke="black" stroke-width="1.4" stroke-linecap="round" stroke-linejoin="round"/>
</svg>
