<svg width="25" height="25" viewBox="0 0 25 25" fill="none" xmlns="http://www.w3.org/2000/svg">
<rect width="24" height="24" transform="translate(0.5 0.307617)" fill="white"/>
<path d="M17.831 4.30762C17.4354 4.30762 17.0488 4.42492 16.7199 4.64468C16.391 4.86444 16.1346 5.1768 15.9832 5.54225C15.8319 5.9077 15.7923 6.30984 15.8694 6.6978C15.9466 7.08576 16.1371 7.44213 16.4168 7.72183C16.6965 8.00154 17.0529 8.19202 17.4408 8.26919C17.8288 8.34636 18.2309 8.30675 18.5964 8.15538C18.9618 8.004 19.2742 7.74766 19.4939 7.41876C19.7137 7.08986 19.831 6.70318 19.831 6.30762C19.8284 5.77799 19.6168 5.27081 19.2423 4.89631C18.8678 4.5218 18.3606 4.31025 17.831 4.30762ZM17.831 5.64062C17.963 5.64042 18.092 5.67937 18.2018 5.75254C18.3117 5.82571 18.3973 5.92981 18.4479 6.05167C18.4986 6.17353 18.5119 6.30768 18.4863 6.43713C18.4607 6.56658 18.3972 6.68552 18.304 6.7789C18.2108 6.87228 18.0919 6.93591 17.9625 6.96173C17.8331 6.98754 17.6989 6.97439 17.577 6.92394C17.455 6.87349 17.3508 6.788 17.2775 6.67829C17.2041 6.56858 17.165 6.43958 17.165 6.30762C17.1637 6.21974 17.18 6.13248 17.2129 6.05102C17.2459 5.96955 17.2949 5.89553 17.357 5.83333C17.4191 5.77114 17.4931 5.72204 17.5745 5.68894C17.6559 5.65583 17.7431 5.6394 17.831 5.64062ZM13.8 6.98962C13.5032 6.96094 13.2037 6.99945 12.9238 7.10227C12.6439 7.2051 12.3907 7.36961 12.183 7.58362L12.248 7.52362L10.025 9.28362L10.074 9.24762C9.76838 9.45752 9.52626 9.7473 9.37402 10.0854C9.22179 10.4234 9.16529 10.7968 9.21068 11.1647C9.25607 11.5327 9.40161 11.8812 9.63143 12.1721C9.86125 12.463 10.1665 12.6853 10.514 12.8146L10.566 12.8306L13.008 13.4526L11.856 17.6286L13.142 17.9826L14.475 13.1496C14.4985 13.0641 14.5047 12.9748 14.4932 12.8869C14.4817 12.799 14.4529 12.7142 14.4083 12.6376C14.3637 12.5609 14.3042 12.494 14.2334 12.4406C14.1627 12.3872 14.0819 12.3484 13.996 12.3266L10.944 11.5516C10.8206 11.5177 10.71 11.4479 10.6264 11.351C10.5428 11.2541 10.4899 11.1345 10.4744 11.0074C10.459 10.8804 10.4817 10.7516 10.5397 10.6375C10.5977 10.5234 10.6883 10.4291 10.8 10.3666C10.8173 10.3553 10.8337 10.3433 10.849 10.3306L13.078 8.57062C13.101 8.55208 13.1227 8.53203 13.143 8.51062C13.2109 8.4366 13.295 8.37925 13.3887 8.34303C13.4824 8.30681 13.5832 8.2927 13.6833 8.30179C13.7833 8.31089 13.8799 8.34294 13.9655 8.39547C14.0512 8.44799 14.1235 8.51956 14.177 8.60462C14.1914 8.62618 14.2071 8.64688 14.224 8.66662L15.99 10.7386C16.0528 10.8125 16.131 10.8718 16.2191 10.9124C16.3071 10.953 16.403 10.9739 16.5 10.9736H19.833V9.64062H16.806L15.241 7.80162L15.288 7.86362C15.1216 7.61549 14.9014 7.40806 14.6438 7.25674C14.3862 7.10543 14.0978 7.01412 13.8 6.98962ZM6.5 12.3076C5.70888 12.3076 4.93552 12.5422 4.27772 12.9817C3.61992 13.4213 3.10723 14.046 2.80448 14.7769C2.50173 15.5078 2.42252 16.3121 2.57686 17.088C2.7312 17.8639 3.11216 18.5766 3.67157 19.136C4.23098 19.6955 4.94372 20.0764 5.71964 20.2308C6.49556 20.3851 7.29983 20.3059 8.03074 20.0031C8.76164 19.7004 9.38635 19.1877 9.82588 18.5299C10.2654 17.8721 10.5 17.0987 10.5 16.3076C10.4974 15.2476 10.0751 14.2317 9.32551 13.4821C8.57594 12.7325 7.56006 12.3103 6.5 12.3076ZM18.5 12.3076C17.7089 12.3076 16.9355 12.5422 16.2777 12.9817C15.6199 13.4213 15.1072 14.046 14.8045 14.7769C14.5017 15.5078 14.4225 16.3121 14.5769 17.088C14.7312 17.8639 15.1122 18.5766 15.6716 19.136C16.231 19.6955 16.9437 20.0764 17.7196 20.2308C18.4956 20.3851 19.2998 20.3059 20.0307 20.0031C20.7616 19.7004 21.3864 19.1877 21.8259 18.5299C22.2654 17.8721 22.5 17.0987 22.5 16.3076C22.4974 15.2476 22.0751 14.2317 21.3255 13.4821C20.5759 12.7325 19.5601 12.3103 18.5 12.3076ZM6.5 13.6396C7.02716 13.6398 7.54243 13.7963 7.98067 14.0893C8.41892 14.3822 8.76047 14.7986 8.96216 15.2856C9.16385 15.7727 9.21662 16.3086 9.1138 16.8256C9.01098 17.3426 8.75719 17.8176 8.3845 18.1904C8.01181 18.5632 7.53696 18.8172 7.01997 18.9202C6.50298 19.0232 5.96705 18.9707 5.47992 18.7692C4.9928 18.5677 4.57635 18.2263 4.28321 17.7881C3.99007 17.35 3.8334 16.8348 3.833 16.3076C3.83141 15.9569 3.89931 15.6093 4.03276 15.285C4.16622 14.9606 4.36259 14.6659 4.61055 14.4179C4.8585 14.1698 5.15314 13.9733 5.47743 13.8398C5.80173 13.7062 6.14927 13.6382 6.5 13.6396ZM18.5 13.6396C19.0271 13.64 19.5423 13.7967 19.9804 14.0898C20.4185 14.3828 20.7599 14.7992 20.9614 15.2863C21.163 15.7734 21.2156 16.3093 21.1127 16.8262C21.0097 17.3432 20.7559 17.818 20.3831 18.1908C20.0104 18.5635 19.5356 18.8174 19.0186 18.9203C18.5016 19.0232 17.9658 18.9706 17.4787 18.7691C16.9916 18.5675 16.5752 18.2261 16.2821 17.788C15.989 17.3499 15.8324 16.8347 15.832 16.3076C15.8304 15.9568 15.8983 15.6092 16.0319 15.2847C16.1654 14.9603 16.3618 14.6656 16.6099 14.4175C16.858 14.1695 17.1527 13.973 17.4771 13.8395C17.8015 13.706 18.1492 13.638 18.5 13.6396Z" fill="black"/>
</svg>
