<svg width="24" height="25" viewBox="0 0 24 25" fill="none" xmlns="http://www.w3.org/2000/svg">
<path d="M5.94393 5.70203H8.17293C8.36998 5.70203 8.55897 5.78031 8.69831 5.91965C8.83765 6.05899 8.91593 6.24797 8.91593 6.44503V18.334C8.91593 18.5311 8.83765 18.7201 8.69831 18.8594C8.55897 18.9987 8.36998 19.077 8.17293 19.077H5.94393C5.74687 19.077 5.55789 18.9987 5.41855 18.8594C5.27921 18.7201 5.20093 18.5311 5.20093 18.334V6.44503C5.20093 6.24797 5.27921 6.05899 5.41855 5.91965C5.55789 5.78031 5.74687 5.70203 5.94393 5.70203Z" stroke="black" stroke-width="1.25" stroke-linecap="round" stroke-linejoin="round"/>
<path d="M15.6051 5.70203H17.8341C18.0311 5.70203 18.2201 5.78031 18.3594 5.91965C18.4988 6.05899 18.5771 6.24797 18.5771 6.44503V18.334C18.5771 18.5311 18.4988 18.7201 18.3594 18.8594C18.2201 18.9987 18.0311 19.077 17.8341 19.077H15.6051C15.408 19.077 15.219 18.9987 15.0797 18.8594C14.9403 18.7201 14.8621 18.5311 14.8621 18.334V6.44503C14.8621 6.24797 14.9403 6.05899 15.0797 5.91965C15.219 5.78031 15.408 5.70203 15.6051 5.70203Z" stroke="black" stroke-width="1.25" stroke-linecap="round" stroke-linejoin="round"/>
<path d="M18.5769 7.93103H20.8059C21.003 7.93103 21.1919 8.00931 21.3313 8.14865C21.4706 8.28799 21.5489 8.47697 21.5489 8.67403V16.105C21.5489 16.3021 21.4706 16.4911 21.3313 16.6304C21.1919 16.7697 21.003 16.848 20.8059 16.848H18.5769" stroke="black" stroke-width="1.25" stroke-linecap="round" stroke-linejoin="round"/>
<path d="M5.201 16.848H2.972C2.77495 16.848 2.58596 16.7697 2.44662 16.6304C2.30728 16.4911 2.229 16.3021 2.229 16.105V8.67403C2.229 8.47697 2.30728 8.28799 2.44662 8.14865C2.58596 8.00931 2.77495 7.93103 2.972 7.93103H5.201" stroke="black" stroke-width="1.25" stroke-linecap="round" stroke-linejoin="round"/>
<path d="M8.91699 12.389H14.862" stroke="black" stroke-width="1.25" stroke-linecap="round" stroke-linejoin="round"/>
<path d="M21.5491 12.389H23.0351" stroke="black" stroke-width="1.25" stroke-linecap="round" stroke-linejoin="round"/>
<path d="M0.74292 12.389H2.22892" stroke="black" stroke-width="1.25" stroke-linecap="round" stroke-linejoin="round"/>
</svg>
