<svg width="19" height="20" viewBox="0 0 19 20" fill="none" xmlns="http://www.w3.org/2000/svg">
<g clip-path="url(#clip0_42_110)">
<path fill-rule="evenodd" clip-rule="evenodd" d="M7.28213 1.16493C7.3653 1.07058 7.47304 1.0012 7.59334 0.964537C7.71365 0.927871 7.84177 0.92536 7.96342 0.957283C9.46849 1.3495 11.7811 2.36871 13.7299 4.18321C15.6937 6.014 17.3006 8.66993 17.3006 12.2921C17.3006 13.7266 16.9789 15.4814 15.8647 16.9349C14.7328 18.4142 12.8559 19.4864 9.94349 19.6669H9.93535C6.05392 19.8623 3.32878 17.8456 2.23356 15.0675C1.14785 12.3139 1.69206 8.88843 4.13899 6.2895C4.20372 6.22054 4.28215 6.16588 4.36924 6.12902C4.45634 6.09215 4.55017 6.0739 4.64474 6.07544C4.7393 6.07697 4.8325 6.09825 4.91835 6.13792C5.0042 6.17759 5.08082 6.23477 5.14328 6.30578L6.86006 8.25464C7.48842 7.13364 7.79378 6.1565 7.83992 5.178C7.88742 4.18321 7.66756 3.13278 7.16135 1.86657C7.11469 1.74978 7.1014 1.62233 7.12297 1.49844C7.14454 1.37454 7.20011 1.25907 7.28349 1.16493H7.28213ZM7.21428 11.486C7.21428 11.3523 7.2406 11.22 7.29176 11.0965C7.34291 10.973 7.41788 10.8608 7.5124 10.7663C7.60692 10.6717 7.71912 10.5968 7.84262 10.5456C7.96611 10.4945 8.09847 10.4681 8.23213 10.4681C8.3658 10.4681 8.49816 10.4945 8.62165 10.5456C8.74514 10.5968 8.85735 10.6717 8.95187 10.7663C9.04638 10.8608 9.12136 10.973 9.17251 11.0965C9.22366 11.22 9.24999 11.3523 9.24999 11.486C9.24999 11.7559 9.14275 12.0148 8.95187 12.2057C8.76098 12.3966 8.50209 12.5039 8.23213 12.5039C7.96218 12.5039 7.70329 12.3966 7.5124 12.2057C7.32151 12.0148 7.21428 11.7559 7.21428 11.486ZM12.6293 11.657C12.6923 11.5939 12.7422 11.519 12.7763 11.4366C12.8104 11.3542 12.8279 11.2659 12.8278 11.1768C12.8277 11.0876 12.8101 10.9993 12.7759 10.917C12.7418 10.8346 12.6917 10.7598 12.6286 10.6968C12.5655 10.6338 12.4906 10.5839 12.4082 10.5498C12.3258 10.5157 12.2375 10.4982 12.1484 10.4983C12.0592 10.4984 11.9709 10.516 11.8886 10.5502C11.8062 10.5843 11.7314 10.6344 11.6684 10.6975L7.21292 15.153C7.14811 15.2156 7.09641 15.2905 7.06085 15.3733C7.02529 15.456 7.00657 15.5451 7.00578 15.6352C7.005 15.7253 7.02217 15.8146 7.05629 15.898C7.09041 15.9814 7.1408 16.0572 7.20451 16.1209C7.26822 16.1846 7.34399 16.235 7.42738 16.2691C7.51077 16.3032 7.60013 16.3204 7.69023 16.3196C7.78033 16.3188 7.86937 16.3001 7.95216 16.2646C8.03495 16.229 8.10982 16.1773 8.17242 16.1125L12.6293 11.657ZM10.8243 15.3254C10.8243 15.0554 10.9315 14.7965 11.1224 14.6056C11.3133 14.4147 11.5722 14.3075 11.8421 14.3075C12.1121 14.3075 12.371 14.4147 12.5619 14.6056C12.7528 14.7965 12.86 15.0554 12.86 15.3254C12.86 15.5953 12.7528 15.8542 12.5619 16.0451C12.371 16.236 12.1121 16.3432 11.8421 16.3432C11.5722 16.3432 11.3133 16.236 11.1224 16.0451C10.9315 15.8542 10.8243 15.5953 10.8243 15.3254Z" fill="#FF4004"/>
</g>
<defs>
<clipPath id="clip0_42_110">
<rect width="19" height="19" fill="white" transform="translate(0 0.807617)"/>
</clipPath>
</defs>
</svg>
