<svg width="16" height="16" viewBox="0 0 16 16" fill="none" xmlns="http://www.w3.org/2000/svg">
<g clip-path="url(#clip0_1_293)">
<path d="M5.56149 12.3006L7.56149 15.2986L9.56149 12.3006H13.5615C13.8267 12.3006 14.0811 12.1952 14.2686 12.0077C14.4561 11.8202 14.5615 11.5658 14.5615 11.3006V2.30759C14.5612 2.04255 14.4558 1.78845 14.2682 1.60113C14.0807 1.41381 13.8265 1.30859 13.5615 1.30859H1.56149C1.29628 1.30859 1.04192 1.41395 0.854386 1.60149C0.66685 1.78902 0.561493 2.04338 0.561493 2.30859V11.3026C0.561493 11.8546 1.00849 12.3016 1.56149 12.3016L5.56149 12.3006Z" stroke="#202020" stroke-linecap="square" stroke-linejoin="round"/>
</g>
<defs>
<clipPath id="clip0_1_293">
<rect width="15" height="15" fill="white" transform="translate(0.0614929 0.807617)"/>
</clipPath>
</defs>
</svg>
