<svg width="25" height="24" viewBox="0 0 25 24" fill="none" xmlns="http://www.w3.org/2000/svg">
<path d="M12.6301 19.847H4.88406C4.79087 19.8481 4.69841 19.8305 4.61209 19.7954C4.52578 19.7602 4.44735 19.7082 4.3814 19.6424C4.31546 19.5765 4.26332 19.4982 4.22806 19.4119C4.1928 19.3256 4.17512 19.2332 4.17606 19.14V11.394C4.17606 9.15186 5.06675 7.00155 6.65218 5.41612C8.23761 3.83069 10.3879 2.94 12.6301 2.94C14.8722 2.94 17.0225 3.83069 18.6079 5.41612C20.1934 7.00155 21.0841 9.15186 21.0841 11.394C21.0841 13.6361 20.1934 15.7865 18.6079 17.3719C17.0225 18.9573 14.8722 19.848 12.6301 19.848V19.847Z" stroke="black" stroke-width="1.4" stroke-linecap="round" stroke-linejoin="round"/>
<path d="M13.731 11.759C13.731 11.9764 13.6666 12.1888 13.546 12.3696C13.4253 12.5504 13.2538 12.6914 13.0531 12.7748C12.8524 12.8582 12.6315 12.8803 12.4182 12.8382C12.205 12.7962 12.009 12.6919 11.855 12.5386C11.7009 12.3852 11.5958 12.1897 11.5528 11.9767C11.5097 11.7636 11.5308 11.5426 11.6133 11.3415C11.6958 11.1404 11.836 10.9683 12.0162 10.8468C12.1965 10.7253 12.4087 10.66 12.626 10.659C12.7709 10.6583 12.9145 10.6863 13.0485 10.7413C13.1825 10.7963 13.3044 10.8772 13.4071 10.9794C13.5097 11.0816 13.5912 11.2031 13.6468 11.3369C13.7024 11.4707 13.731 11.6141 13.731 11.759Z" fill="black"/>
<path d="M9.32109 11.759C9.32109 11.9764 9.2567 12.1888 9.13605 12.3696C9.0154 12.5504 8.8439 12.6914 8.64319 12.7748C8.44249 12.8582 8.22157 12.8803 8.00833 12.8382C7.79509 12.7962 7.59908 12.6919 7.44504 12.5386C7.29101 12.3852 7.18585 12.1897 7.14284 11.9767C7.09984 11.7636 7.12091 11.5426 7.2034 11.3415C7.28589 11.1404 7.4261 10.9683 7.60634 10.8468C7.78657 10.7253 7.99875 10.66 8.21609 10.659C8.36097 10.6583 8.50455 10.6863 8.63858 10.7413C8.77262 10.7963 8.89447 10.8772 8.99715 10.9794C9.09982 11.0816 9.18129 11.2031 9.23689 11.3369C9.29248 11.4707 9.3211 11.6141 9.32109 11.759Z" fill="black"/>
<path d="M18.1419 11.759C18.1419 11.9764 18.0775 12.1888 17.9569 12.3696C17.8362 12.5504 17.6647 12.6914 17.464 12.7748C17.2633 12.8582 17.0424 12.8803 16.8291 12.8382C16.6159 12.7962 16.4199 12.6919 16.2658 12.5386C16.1118 12.3852 16.0067 12.1897 15.9636 11.9767C15.9206 11.7636 15.9417 11.5426 16.0242 11.3415C16.1067 11.1404 16.2469 10.9683 16.4271 10.8468C16.6074 10.7253 16.8196 10.66 17.0369 10.659C17.1818 10.6583 17.3253 10.6863 17.4594 10.7413C17.5934 10.7963 17.7153 10.8772 17.8179 10.9794C17.9206 11.0816 18.0021 11.2031 18.0577 11.3369C18.1133 11.4707 18.1419 11.6141 18.1419 11.759Z" fill="black"/>
</svg>
