<svg width="24" height="24" viewBox="0 0 24 24" fill="none" xmlns="http://www.w3.org/2000/svg">
<path d="M19.948 21C17.8647 21 15.8024 20.55 13.761 19.65C11.7197 18.75 9.86538 17.4667 8.19805 15.8C6.53071 14.1333 5.24738 12.2833 4.34805 10.25C3.44871 8.21667 2.99871 6.15 2.99805 4.05V3H8.89805L9.82305 8.025L6.97305 10.9C7.33971 11.55 7.74805 12.1667 8.19805 12.75C8.64805 13.3333 9.13138 13.875 9.64805 14.375C10.1314 14.8583 10.6607 15.321 11.236 15.763C11.8114 16.205 12.432 16.6173 13.098 17L15.998 14.1L20.998 15.125V21H19.948Z" fill="#202020"/>
</svg>
